<?xml version="1.0" standalone="no"?><!-- Generator: Gravit.io --><svg xmlns="http://www.w3.org/2000/svg" xmlns:xlink="http://www.w3.org/1999/xlink" style="isolation:isolate" viewBox="0 0 800 800" width="800" height="800"><defs><clipPath id="_clipPath_U6YBKYf8XEF3AZa3NqaLHdVCD62sxFye"><rect width="800" height="800"/></clipPath></defs><g clip-path="url(#_clipPath_U6YBKYf8XEF3AZa3NqaLHdVCD62sxFye)"><g><path d=" M 99.569 132.04 C 93.698 132.04 87.349 131.364 81.569 132.518 C 57.242 137.375 35.014 156.796 30.764 182.04 C 28.347 196.402 29.569 211.52 29.569 226.04 L 29.569 302.04 L 29.569 537.04 L 29.569 578.04 C 29.569 587.18 29.003 597.073 31.028 606.04 C 34.932 623.328 45.503 637.84 60.569 647.14 C 66.329 650.696 73.006 652.894 79.569 654.446 C 89.936 656.898 101.005 656.04 111.569 656.04 L 163.569 656.04 L 330.569 656.04 L 381.569 656.04 C 388.894 656.04 398.396 654.428 405.476 656.358 C 408.753 657.251 410.515 660.412 412.375 663.001 C 415.566 667.446 418.819 671.836 422.324 676.04 C 433.307 689.216 446.498 700.826 460.569 710.605 C 481.808 725.365 508.02 737.091 533.569 741.576 C 543.913 743.392 554.155 743.383 564.569 744.094 C 567.993 744.328 571.135 745.863 574.569 745.947 C 580.767 746.098 587.4 744.866 593.569 744.206 C 615.287 741.881 636.36 737.823 656.569 729.167 C 681.532 718.475 707.061 702.684 724.993 682.04 C 742.331 662.08 756.931 641.163 765.871 616.04 C 770.935 601.809 773.486 587.054 774.658 572.04 C 775.296 563.878 776.897 556.362 776.53 548.04 C 773.857 487.535 741.52 432.549 691.569 398.785 C 659.681 377.231 622.468 367.031 584.569 364.04 L 584.569 225.04 C 584.569 200.964 587.199 175.226 571.01 155.326 C 561.525 143.665 549.084 136.303 534.569 132.744 C 528.786 131.327 516.521 134.785 512.172 130.437 C 510.301 128.566 510.586 125.458 510.57 123.04 C 510.531 117.407 510.934 111.652 510.399 106.04 C 508.393 84.974 494.406 70.334 472.569 70.059 C 454.619 69.832 435.228 81.652 433.662 101.04 C 433.103 107.967 433.583 115.092 433.569 122.04 C 433.564 124.699 434.036 128.366 431.966 130.437 C 429.895 132.507 426.228 132.035 423.569 132.04 C 416.493 132.055 408.575 133.028 401.588 131.892 C 396.326 131.036 396.578 126.363 396.569 122.04 C 396.552 113.998 397.735 104.93 396.051 97.04 C 391.399 75.233 368.275 67.808 348.659 71.13 C 331.772 73.989 320.595 89.684 320.569 106.04 L 320.568 123.04 C 320.552 125.431 320.838 128.464 318.966 130.298 C 316.858 132.361 313.266 132.025 310.569 132.039 L 290.569 132.04 C 290.569 116.52 293.199 98.425 283.464 85.055 C 266.955 62.38 228.434 66.503 216.088 91.04 C 210.15 102.841 212.569 119.25 212.569 132.04 L 177.569 132.04 C 177.569 117.057 180.015 99.09 170.946 86.044 C 156.156 64.77 118.921 64.311 105.247 87.04 C 97.176 100.457 99.569 117.061 99.569 132.04 Z " fill="rgb(255,255,255)" vector-effect="non-scaling-stroke" stroke-width="1" stroke="rgb(0,0,0)" stroke-linejoin="miter" stroke-linecap="square" stroke-miterlimit="3"/><path d=" M 133.441 95.746 C 122.161 98.221 124.44 111.531 124.44 120.263 L 124.44 166.263 C 124.44 172.303 122.963 180.718 125.897 186.219 C 129.144 192.307 138.466 192.26 144.436 190.869 C 154.565 188.509 151.44 174.074 151.44 166.263 L 151.44 120.263 C 151.44 114.559 153.13 105.495 150.261 100.371 C 147.208 94.918 138.85 94.559 133.441 95.746 Z " fill="rgb(70,70,70)"/><path d=" M 246.441 95.796 C 235.56 98.454 238.44 111.693 238.44 120.263 L 238.44 167.263 C 238.44 173.031 236.776 181.995 239.758 187.154 C 242.842 192.491 253.146 192.319 258.425 190.829 C 267.921 188.149 265.44 173.67 265.44 166.263 L 265.44 124.263 C 265.44 117.318 266.689 108.891 264.176 102.278 C 261.497 95.227 252.984 94.197 246.441 95.796 Z " fill="rgb(70,70,70)"/><path d=" M 353.444 95.796 C 342.647 98.453 345.44 111.795 345.44 120.263 L 345.44 167.263 C 345.44 173.109 343.854 181.831 346.897 187.074 C 350.015 192.447 360.109 192.312 365.435 190.829 C 375.145 188.127 372.44 173.854 372.44 166.263 L 372.44 123.263 C 372.44 116.869 373.897 108.314 371.546 102.267 C 368.788 95.169 360.011 94.18 353.444 95.796 Z " fill="rgb(70,70,70)"/><path d=" M 467.441 95.742 C 456.247 98.064 457.44 110.341 457.44 119.263 L 457.44 163.263 C 457.44 170.109 456.093 178.837 458.954 185.258 C 462.009 192.115 471.968 192.624 478.436 190.829 C 488.272 188.101 485.44 173.968 485.44 166.263 L 485.44 122.263 C 485.44 116.253 486.902 107.939 484.698 102.267 C 482.018 95.373 473.815 94.419 467.441 95.742 Z " fill="rgb(70,70,70)"/><path d=" M 55.15 228.86 C 104.842 228.86 154.513 227.454 204.15 226.864 C 323.112 225.449 442.179 226.86 561.15 226.86 C 561.15 204.401 565.013 174.861 543.149 160.822 C 539.548 158.51 535.27 156.735 531.15 155.585 C 525.225 153.932 518.259 154.86 512.15 154.86 C 512.15 171.013 514.496 187.967 504.513 201.86 C 494.015 216.469 471.391 221.152 455.15 213.825 C 446.54 209.94 439.772 202.215 435.665 193.86 C 430.295 182.937 433.15 166.756 433.15 154.86 L 399.15 154.86 C 399.15 168.049 401.246 183.729 395.019 195.86 C 381.795 221.623 343.385 224.479 326.454 200.856 C 316.98 187.637 319.15 170.194 319.15 154.86 L 292.15 154.86 C 292.15 168.087 294.375 183.671 288.104 195.86 C 275.247 220.848 237.037 225.007 220.077 201.859 C 209.972 188.066 212.15 170.956 212.15 154.86 L 179.15 154.86 C 179.15 170.965 181.078 188.061 170.941 201.821 C 154.538 224.086 116.492 221.475 103.552 196.86 C 96.857 184.126 99.15 168.804 99.15 154.86 C 94.09 154.86 88.552 154.169 83.725 155.9 C 79.022 157.587 74.13 159.121 70.15 162.25 C 50.041 178.063 55.15 206.327 55.15 228.86 Z " fill="rgb(153,0,255)"/><path d=" M 54.413 241.243 L 54.413 520.243 L 54.413 575.243 C 54.413 592.666 54.256 608.966 68.502 621.308 C 79.002 630.404 92.367 630.243 105.413 630.243 L 158.413 630.243 L 394.413 630.243 C 391.554 622.884 387.799 615.71 385.503 608.154 C 378.434 584.891 375.261 559.546 377.583 535.243 C 385.224 455.27 447.569 390.083 523.413 369.157 C 535.074 365.939 548.273 362.377 560.413 362.243 L 560.413 240.243 L 54.413 241.243 Z " fill="rgb(0,0,0)"/><path d=" M 203.525 304.361 C 210.053 296.004 223.039 283.521 231.822 296.376 C 232.854 297.887 233.561 299.588 233.992 301.361 C 235.511 307.609 234.525 314.965 234.525 321.361 L 234.525 360.361 L 234.525 602.361 C 245.711 597.773 257.361 594.44 268.525 589.796 C 271.836 588.419 278.274 587.608 280.497 584.658 C 283.151 581.137 281.525 572.572 281.525 568.361 L 281.525 526.361 L 281.525 420.361 C 281.525 402.724 279.615 383.868 281.709 366.361 C 282.114 362.978 283.209 359.773 283.524 356.361 C 285.826 331.449 295.03 291.768 327.525 295.312 C 331.892 295.788 336.364 296.606 340.355 298.535 C 379.331 317.381 379.149 373.89 369.902 409.361 C 365.629 425.755 356.294 445.128 338.525 450.256 C 328.906 453.032 316.86 450.052 308.525 444.802 C 304.325 442.156 301.04 438.454 296.525 436.361 C 292.747 446.262 287.094 455.738 285.525 466.361 C 297.336 471.046 307.665 474.491 320.525 475.152 C 329.737 475.625 340.563 474.338 349.525 472.121 C 397.858 460.165 416.525 405.558 416.525 361.361 C 416.525 354.433 417.063 347.247 416.24 340.361 C 411.522 300.913 379.917 260.335 336.525 264.531 C 319.491 266.178 304.867 276.381 295.148 290.361 C 290.875 296.507 288.284 306.849 281.525 310.361 C 281.284 298.705 280.234 285.998 272.968 276.365 C 259.071 257.94 229.566 262.682 213.525 275.042 C 205.507 281.219 187.931 297.734 203.525 304.361 Z " fill="rgb(255,255,255)"/><path d=" M 707.594 447.785 C 704.605 454.907 699.805 461.298 695.644 467.785 C 688.595 478.776 681.449 489.729 674.505 500.785 C 647.204 544.256 619.798 587.69 591.903 630.785 C 582.47 645.358 573.319 660.101 564.064 674.785 C 558.502 683.61 551.638 692.136 547.594 701.785 C 542.5 698.111 539.495 692.838 535.884 687.785 C 529.694 679.123 523.597 670.377 517.312 661.785 C 501.13 639.66 485.501 617.132 469.594 594.785 C 461.737 583.748 450.792 572.307 445.594 559.785 C 456.872 555.447 465.914 545.499 476.594 539.785 C 482.356 551.911 492.255 562.862 500.042 573.785 C 514.547 594.13 529.043 614.469 543.594 634.785 L 545.594 634.785 C 556.884 614.506 570.506 595.301 583.053 575.785 C 605.461 540.93 627.451 505.78 649.647 470.785 C 659.967 454.514 671.248 438.64 680.594 421.785 C 661.65 408.747 641.925 399.199 619.594 393.486 C 606.244 390.07 592.27 389.785 578.594 389.785 C 543.228 389.785 508.317 397.879 478.594 418.002 C 446.905 439.456 421.841 470.969 410.568 507.785 C 391.165 571.152 415.368 643.613 468.594 683.205 C 518.717 720.488 588.519 730.971 646.594 706.553 C 669.573 696.891 690.782 681.276 707.423 662.785 C 749.325 616.225 760.697 542.935 733.292 486.5 C 726.913 473.362 719.667 456.677 707.594 447.785 Z " fill="rgb(0,0,255)"/></g></g></svg>