<?xml version="1.0" standalone="no"?><!-- Generator: Gravit.io --><svg xmlns="http://www.w3.org/2000/svg" xmlns:xlink="http://www.w3.org/1999/xlink" style="isolation:isolate" viewBox="0 0 50 50" width="50" height="50"><defs><clipPath id="_clipPath_oAH3xDcRtocq93WNfvSTQHLMOvJY4ULE"><rect width="50" height="50"/></clipPath></defs><g clip-path="url(#_clipPath_oAH3xDcRtocq93WNfvSTQHLMOvJY4ULE)"><clipPath id="_clipPath_MxkThb8ZHNMNrUAveHsUE0HqBAGWcKvU"><rect x="0" y="0" width="50" height="50" transform="matrix(1,0,0,1,0,0)" fill="rgb(255,255,255)"/></clipPath><g clip-path="url(#_clipPath_MxkThb8ZHNMNrUAveHsUE0HqBAGWcKvU)"><g><g><path d=" M 6.223 8.253 C 5.856 8.253 5.459 8.21 5.098 8.282 C 3.578 8.586 2.188 9.8 1.923 11.378 C 1.772 12.275 1.848 13.22 1.848 14.128 L 1.848 18.878 L 1.848 33.565 L 1.848 36.128 C 1.848 36.699 1.813 37.317 1.939 37.878 C 2.183 38.958 2.844 39.865 3.786 40.446 C 4.146 40.669 4.563 40.806 4.973 40.903 C 5.621 41.056 6.313 41.003 6.973 41.003 L 10.223 41.003 L 20.661 41.003 L 23.848 41.003 C 24.306 41.003 24.9 40.902 25.342 41.022 C 25.547 41.078 25.657 41.276 25.773 41.438 C 25.973 41.715 26.176 41.99 26.395 42.253 C 27.082 43.076 27.906 43.802 28.786 44.413 C 30.113 45.335 31.751 46.068 33.348 46.349 C 33.995 46.462 34.635 46.461 35.286 46.506 C 35.5 46.521 35.696 46.616 35.911 46.622 C 36.298 46.631 36.713 46.554 37.098 46.513 C 38.455 46.368 39.773 46.114 41.036 45.573 C 42.596 44.905 44.191 43.918 45.312 42.628 C 46.396 41.38 47.308 40.073 47.867 38.503 C 48.183 37.613 48.343 36.691 48.416 35.753 C 48.456 35.242 48.556 34.773 48.533 34.253 C 48.366 30.471 46.345 27.034 43.223 24.924 C 41.23 23.577 38.904 22.939 36.536 22.753 L 36.536 14.065 C 36.536 12.56 36.7 10.952 35.688 9.708 C 35.095 8.979 34.318 8.519 33.411 8.297 C 33.049 8.208 32.283 8.424 32.011 8.152 C 31.894 8.035 31.912 7.841 31.911 7.69 C 31.908 7.338 31.933 6.978 31.9 6.628 C 31.775 5.311 30.9 4.396 29.536 4.379 C 28.414 4.365 27.202 5.103 27.104 6.315 C 27.069 6.748 27.099 7.193 27.098 7.628 C 27.098 7.794 27.127 8.023 26.998 8.152 C 26.868 8.282 26.639 8.252 26.473 8.253 C 26.031 8.253 25.536 8.314 25.099 8.243 C 24.77 8.19 24.786 7.898 24.786 7.628 C 24.785 7.125 24.858 6.558 24.753 6.065 C 24.462 4.702 23.017 4.238 21.791 4.446 C 20.736 4.624 20.037 5.605 20.036 6.628 L 20.036 7.69 C 20.035 7.839 20.052 8.029 19.935 8.144 C 19.804 8.273 19.579 8.252 19.411 8.252 L 18.161 8.253 C 18.161 7.283 18.325 6.152 17.717 5.316 C 16.685 3.899 14.277 4.156 13.506 5.69 C 13.134 6.428 13.286 7.453 13.286 8.253 L 11.098 8.253 C 11.098 7.316 11.251 6.193 10.684 5.378 C 9.76 4.048 7.433 4.019 6.578 5.44 C 6.074 6.279 6.223 7.316 6.223 8.253 Z " fill="rgb(255,255,255)"/><path d=" M 6.223 8.253 C 5.856 8.253 5.459 8.21 5.098 8.282 C 3.578 8.586 2.188 9.8 1.923 11.378 C 1.772 12.275 1.848 13.22 1.848 14.128 L 1.848 18.878 L 1.848 33.565 L 1.848 36.128 C 1.848 36.699 1.813 37.317 1.939 37.878 C 2.183 38.958 2.844 39.865 3.786 40.446 C 4.146 40.669 4.563 40.806 4.973 40.903 C 5.621 41.056 6.313 41.003 6.973 41.003 L 10.223 41.003 L 20.661 41.003 L 23.848 41.003 C 24.306 41.003 24.9 40.902 25.342 41.022 C 25.547 41.078 25.657 41.276 25.773 41.438 C 25.973 41.715 26.176 41.99 26.395 42.253 C 27.082 43.076 27.906 43.802 28.786 44.413 C 30.113 45.335 31.751 46.068 33.348 46.349 C 33.995 46.462 34.635 46.461 35.286 46.506 C 35.5 46.521 35.696 46.616 35.911 46.622 C 36.298 46.631 36.713 46.554 37.098 46.513 C 38.455 46.368 39.773 46.114 41.036 45.573 C 42.596 44.905 44.191 43.918 45.312 42.628 C 46.396 41.38 47.308 40.073 47.867 38.503 C 48.183 37.613 48.343 36.691 48.416 35.753 C 48.456 35.242 48.556 34.773 48.533 34.253 C 48.366 30.471 46.345 27.034 43.223 24.924 C 41.23 23.577 38.904 22.939 36.536 22.753 L 36.536 14.065 C 36.536 12.56 36.7 10.952 35.688 9.708 C 35.095 8.979 34.318 8.519 33.411 8.297 C 33.049 8.208 32.283 8.424 32.011 8.152 C 31.894 8.035 31.912 7.841 31.911 7.69 C 31.908 7.338 31.933 6.978 31.9 6.628 C 31.775 5.311 30.9 4.396 29.536 4.379 C 28.414 4.365 27.202 5.103 27.104 6.315 C 27.069 6.748 27.099 7.193 27.098 7.628 C 27.098 7.794 27.127 8.023 26.998 8.152 C 26.868 8.282 26.639 8.252 26.473 8.253 C 26.031 8.253 25.536 8.314 25.099 8.243 C 24.77 8.19 24.786 7.898 24.786 7.628 C 24.785 7.125 24.858 6.558 24.753 6.065 C 24.462 4.702 23.017 4.238 21.791 4.446 C 20.736 4.624 20.037 5.605 20.036 6.628 L 20.036 7.69 C 20.035 7.839 20.052 8.029 19.935 8.144 C 19.804 8.273 19.579 8.252 19.411 8.252 L 18.161 8.253 C 18.161 7.283 18.325 6.152 17.717 5.316 C 16.685 3.899 14.277 4.156 13.506 5.69 C 13.134 6.428 13.286 7.453 13.286 8.253 L 11.098 8.253 C 11.098 7.316 11.251 6.193 10.684 5.378 C 9.76 4.048 7.433 4.019 6.578 5.44 C 6.074 6.279 6.223 7.316 6.223 8.253 Z " fill="rgb(255,255,255)"/><g style="isolation: isolate;"><mask id="_mask_L1vjCdzNZt2ljcGNlqTq8FrQ8EsP0BfA" x="-200%" y="-200%" width="400%" height="400%"><rect x="-200%" y="-200%" width="400%" height="400%" style="fill:white;"/><path d=" M 6.223 8.253 C 5.856 8.253 5.459 8.21 5.098 8.282 C 3.578 8.586 2.188 9.8 1.923 11.378 C 1.772 12.275 1.848 13.22 1.848 14.128 L 1.848 18.878 L 1.848 33.565 L 1.848 36.128 C 1.848 36.699 1.813 37.317 1.939 37.878 C 2.183 38.958 2.844 39.865 3.786 40.446 C 4.146 40.669 4.563 40.806 4.973 40.903 C 5.621 41.056 6.313 41.003 6.973 41.003 L 10.223 41.003 L 20.661 41.003 L 23.848 41.003 C 24.306 41.003 24.9 40.902 25.342 41.022 C 25.547 41.078 25.657 41.276 25.773 41.438 C 25.973 41.715 26.176 41.99 26.395 42.253 C 27.082 43.076 27.906 43.802 28.786 44.413 C 30.113 45.335 31.751 46.068 33.348 46.349 C 33.995 46.462 34.635 46.461 35.286 46.506 C 35.5 46.521 35.696 46.616 35.911 46.622 C 36.298 46.631 36.713 46.554 37.098 46.513 C 38.455 46.368 39.773 46.114 41.036 45.573 C 42.596 44.905 44.191 43.918 45.312 42.628 C 46.396 41.38 47.308 40.073 47.867 38.503 C 48.183 37.613 48.343 36.691 48.416 35.753 C 48.456 35.242 48.556 34.773 48.533 34.253 C 48.366 30.471 46.345 27.034 43.223 24.924 C 41.23 23.577 38.904 22.939 36.536 22.753 L 36.536 14.065 C 36.536 12.56 36.7 10.952 35.688 9.708 C 35.095 8.979 34.318 8.519 33.411 8.297 C 33.049 8.208 32.283 8.424 32.011 8.152 C 31.894 8.035 31.912 7.841 31.911 7.69 C 31.908 7.338 31.933 6.978 31.9 6.628 C 31.775 5.311 30.9 4.396 29.536 4.379 C 28.414 4.365 27.202 5.103 27.104 6.315 C 27.069 6.748 27.099 7.193 27.098 7.628 C 27.098 7.794 27.127 8.023 26.998 8.152 C 26.868 8.282 26.639 8.252 26.473 8.253 C 26.031 8.253 25.536 8.314 25.099 8.243 C 24.77 8.19 24.786 7.898 24.786 7.628 C 24.785 7.125 24.858 6.558 24.753 6.065 C 24.462 4.702 23.017 4.238 21.791 4.446 C 20.736 4.624 20.037 5.605 20.036 6.628 L 20.036 7.69 C 20.035 7.839 20.052 8.029 19.935 8.144 C 19.804 8.273 19.579 8.252 19.411 8.252 L 18.161 8.253 C 18.161 7.283 18.325 6.152 17.717 5.316 C 16.685 3.899 14.277 4.156 13.506 5.69 C 13.134 6.428 13.286 7.453 13.286 8.253 L 11.098 8.253 C 11.098 7.316 11.251 6.193 10.684 5.378 C 9.76 4.048 7.433 4.019 6.578 5.44 C 6.074 6.279 6.223 7.316 6.223 8.253 Z " fill="black" stroke="none"/></mask><path d=" M 6.223 8.253 C 5.856 8.253 5.459 8.21 5.098 8.282 C 3.578 8.586 2.188 9.8 1.923 11.378 C 1.772 12.275 1.848 13.22 1.848 14.128 L 1.848 18.878 L 1.848 33.565 L 1.848 36.128 C 1.848 36.699 1.813 37.317 1.939 37.878 C 2.183 38.958 2.844 39.865 3.786 40.446 C 4.146 40.669 4.563 40.806 4.973 40.903 C 5.621 41.056 6.313 41.003 6.973 41.003 L 10.223 41.003 L 20.661 41.003 L 23.848 41.003 C 24.306 41.003 24.9 40.902 25.342 41.022 C 25.547 41.078 25.657 41.276 25.773 41.438 C 25.973 41.715 26.176 41.99 26.395 42.253 C 27.082 43.076 27.906 43.802 28.786 44.413 C 30.113 45.335 31.751 46.068 33.348 46.349 C 33.995 46.462 34.635 46.461 35.286 46.506 C 35.5 46.521 35.696 46.616 35.911 46.622 C 36.298 46.631 36.713 46.554 37.098 46.513 C 38.455 46.368 39.773 46.114 41.036 45.573 C 42.596 44.905 44.191 43.918 45.312 42.628 C 46.396 41.38 47.308 40.073 47.867 38.503 C 48.183 37.613 48.343 36.691 48.416 35.753 C 48.456 35.242 48.556 34.773 48.533 34.253 C 48.366 30.471 46.345 27.034 43.223 24.924 C 41.23 23.577 38.904 22.939 36.536 22.753 L 36.536 14.065 C 36.536 12.56 36.7 10.952 35.688 9.708 C 35.095 8.979 34.318 8.519 33.411 8.297 C 33.049 8.208 32.283 8.424 32.011 8.152 C 31.894 8.035 31.912 7.841 31.911 7.69 C 31.908 7.338 31.933 6.978 31.9 6.628 C 31.775 5.311 30.9 4.396 29.536 4.379 C 28.414 4.365 27.202 5.103 27.104 6.315 C 27.069 6.748 27.099 7.193 27.098 7.628 C 27.098 7.794 27.127 8.023 26.998 8.152 C 26.868 8.282 26.639 8.252 26.473 8.253 C 26.031 8.253 25.536 8.314 25.099 8.243 C 24.77 8.19 24.786 7.898 24.786 7.628 C 24.785 7.125 24.858 6.558 24.753 6.065 C 24.462 4.702 23.017 4.238 21.791 4.446 C 20.736 4.624 20.037 5.605 20.036 6.628 L 20.036 7.69 C 20.035 7.839 20.052 8.029 19.935 8.144 C 19.804 8.273 19.579 8.252 19.411 8.252 L 18.161 8.253 C 18.161 7.283 18.325 6.152 17.717 5.316 C 16.685 3.899 14.277 4.156 13.506 5.69 C 13.134 6.428 13.286 7.453 13.286 8.253 L 11.098 8.253 C 11.098 7.316 11.251 6.193 10.684 5.378 C 9.76 4.048 7.433 4.019 6.578 5.44 C 6.074 6.279 6.223 7.316 6.223 8.253 Z " fill="none" mask="url(#_mask_L1vjCdzNZt2ljcGNlqTq8FrQ8EsP0BfA)" vector-effect="non-scaling-stroke" stroke-width="2" stroke="rgb(0,0,0)" stroke-opacity="100" stroke-linejoin="miter" stroke-linecap="square" stroke-miterlimit="3"/></g><path d=" M 8.34 5.984 C 7.635 6.139 7.778 6.971 7.778 7.516 L 7.778 10.391 C 7.778 10.769 7.685 11.295 7.869 11.639 C 8.072 12.019 8.654 12.016 9.027 11.929 C 9.66 11.782 9.465 10.88 9.465 10.391 L 9.465 7.516 C 9.465 7.16 9.571 6.593 9.391 6.273 C 9.201 5.932 8.678 5.91 8.34 5.984 Z " fill="rgb(70,70,70)"/><path d=" M 15.403 5.987 C 14.723 6.153 14.903 6.981 14.903 7.516 L 14.903 10.454 C 14.903 10.814 14.799 11.375 14.985 11.697 C 15.178 12.031 15.822 12.02 16.152 11.927 C 16.745 11.759 16.59 10.854 16.59 10.391 L 16.59 7.766 C 16.59 7.332 16.668 6.806 16.511 6.392 C 16.344 5.952 15.812 5.887 15.403 5.987 Z " fill="rgb(70,70,70)"/><path d=" M 22.09 5.987 C 21.415 6.153 21.59 6.987 21.59 7.516 L 21.59 10.454 C 21.59 10.819 21.491 11.364 21.681 11.692 C 21.876 12.028 22.507 12.02 22.84 11.927 C 23.447 11.758 23.278 10.866 23.278 10.391 L 23.278 7.704 C 23.278 7.304 23.369 6.77 23.222 6.392 C 23.049 5.948 22.501 5.886 22.09 5.987 Z " fill="rgb(70,70,70)"/><path d=" M 29.215 5.984 C 28.515 6.129 28.59 6.896 28.59 7.454 L 28.59 10.204 C 28.59 10.632 28.506 11.177 28.685 11.579 C 28.876 12.007 29.498 12.039 29.902 11.927 C 30.517 11.756 30.34 10.873 30.34 10.391 L 30.34 7.641 C 30.34 7.266 30.431 6.746 30.294 6.392 C 30.126 5.961 29.613 5.901 29.215 5.984 Z " fill="rgb(70,70,70)"/><path d=" M 3.447 14.304 C 6.553 14.304 9.657 14.216 12.759 14.179 C 20.195 14.091 27.636 14.179 35.072 14.179 C 35.072 12.775 35.313 10.929 33.947 10.051 C 33.722 9.907 33.454 9.796 33.197 9.724 C 32.827 9.621 32.391 9.679 32.009 9.679 C 32.009 10.688 32.156 11.748 31.532 12.616 C 30.876 13.529 29.462 13.822 28.447 13.364 C 27.909 13.121 27.486 12.638 27.229 12.116 C 26.893 11.434 27.072 10.422 27.072 9.679 L 24.947 9.679 C 24.947 10.503 25.078 11.483 24.689 12.241 C 23.862 13.851 21.462 14.03 20.403 12.554 C 19.811 11.727 19.947 10.637 19.947 9.679 L 18.259 9.679 C 18.259 10.505 18.398 11.479 18.007 12.241 C 17.203 13.803 14.815 14.063 13.755 12.616 C 13.123 11.754 13.259 10.685 13.259 9.679 L 11.197 9.679 C 11.197 10.685 11.317 11.754 10.684 12.614 C 9.659 14.005 7.281 13.842 6.472 12.304 C 6.054 11.508 6.197 10.55 6.197 9.679 C 5.881 9.679 5.535 9.636 5.233 9.744 C 4.939 9.849 4.633 9.945 4.384 10.141 C 3.128 11.129 3.447 12.895 3.447 14.304 Z " fill="rgb(153,0,255)"/><path d=" M 3.401 15.078 L 3.401 32.515 L 3.401 35.953 C 3.401 37.042 3.391 38.06 4.281 38.832 C 4.938 39.4 5.773 39.39 6.588 39.39 L 9.901 39.39 L 24.651 39.39 C 24.472 38.93 24.237 38.482 24.094 38.01 C 23.652 36.556 23.454 34.972 23.599 33.453 C 24.077 28.454 27.973 24.38 32.713 23.072 C 33.442 22.871 34.267 22.649 35.026 22.64 L 35.026 15.015 L 3.401 15.078 Z " fill="rgb(0,0,0)"/><path d=" M 12.72 19.023 C 13.128 18.5 13.94 17.72 14.489 18.524 C 14.553 18.618 14.598 18.724 14.625 18.835 C 14.719 19.226 14.658 19.685 14.658 20.085 L 14.658 22.523 L 14.658 37.648 C 15.357 37.361 16.085 37.153 16.783 36.862 C 16.99 36.776 17.392 36.726 17.531 36.541 C 17.697 36.321 17.595 35.786 17.595 35.523 L 17.595 32.898 L 17.595 26.273 C 17.595 25.17 17.476 23.992 17.607 22.898 C 17.632 22.686 17.701 22.486 17.72 22.273 C 17.864 20.716 18.439 18.236 20.47 18.457 C 20.743 18.487 21.023 18.538 21.272 18.658 C 23.708 19.836 23.697 23.368 23.119 25.585 C 22.852 26.61 22.268 27.821 21.158 28.141 C 20.557 28.315 19.804 28.128 19.283 27.8 C 19.02 27.635 18.815 27.403 18.533 27.273 C 18.297 27.891 17.943 28.484 17.845 29.148 C 18.584 29.44 19.229 29.656 20.033 29.697 C 20.609 29.727 21.285 29.646 21.845 29.508 C 24.866 28.76 26.033 25.347 26.033 22.585 C 26.033 22.152 26.066 21.703 26.015 21.273 C 25.72 18.807 23.745 16.271 21.033 16.533 C 19.968 16.636 19.054 17.274 18.447 18.148 C 18.18 18.532 18.018 19.178 17.595 19.398 C 17.58 18.669 17.515 17.875 17.061 17.273 C 16.192 16.121 14.348 16.418 13.345 17.19 C 12.844 17.576 11.746 18.608 12.72 19.023 Z " fill="rgb(255,255,255)"/><path d=" M 44.225 27.987 C 44.038 28.432 43.738 28.831 43.478 29.237 C 43.037 29.924 42.591 30.608 42.157 31.299 C 40.45 34.016 38.737 36.731 36.994 39.424 C 36.404 40.335 35.832 41.256 35.254 42.174 C 34.906 42.726 34.477 43.259 34.225 43.862 C 33.906 43.632 33.718 43.302 33.493 42.987 C 33.106 42.445 32.725 41.899 32.332 41.362 C 31.321 39.979 30.344 38.571 29.35 37.174 C 28.859 36.484 28.175 35.769 27.85 34.987 C 28.555 34.715 29.12 34.094 29.787 33.737 C 30.147 34.494 30.766 35.179 31.253 35.862 C 32.159 37.133 33.065 38.404 33.975 39.674 L 34.1 39.674 C 34.805 38.407 35.657 37.206 36.441 35.987 C 37.841 33.808 39.216 31.611 40.603 29.424 C 41.248 28.407 41.953 27.415 42.537 26.362 C 41.353 25.547 40.12 24.95 38.725 24.593 C 37.89 24.379 37.017 24.362 36.162 24.362 C 33.952 24.362 31.77 24.867 29.912 26.125 C 27.932 27.466 26.365 29.436 25.661 31.737 C 24.448 35.697 25.961 40.226 29.287 42.7 C 32.42 45.031 36.782 45.686 40.412 44.16 C 41.848 43.556 43.174 42.58 44.214 41.424 C 46.833 38.514 47.544 33.933 45.831 30.406 C 45.432 29.585 44.979 28.542 44.225 27.987 Z " fill="rgb(0,0,255)"/></g></g></g></g></svg>